<svg xmlns="http://www.w3.org/2000/svg" width="24" height="24" fill="none" viewBox="0 0 24 24" id="cat">
  <path fill="#854D9C" fill-rule="evenodd" d="M11.7131 16.4814C11.7131 16.4813 11.7141 16.4808 11.7165 16.4798 11.7143 16.4809 11.7131 16.4814 11.7131 16.4814zM12.3222 16.4798C12.3245 16.4808 12.3256 16.4813 12.3256 16.4814 12.3255 16.4814 12.3244 16.4809 12.3222 16.4798zM12.3222 15.5202C12.3244 15.5191 12.3255 15.5186 12.3256 15.5186 12.3256 15.5187 12.3245 15.5192 12.3222 15.5202zM11.7165 15.5202C11.7141 15.5192 11.7131 15.5187 11.7131 15.5186 11.7131 15.5186 11.7143 15.5191 11.7165 15.5202zM11.1781 15.0797C11.4304 14.9819 11.7281 14.9375 12.0193 14.9375 12.3106 14.9375 12.6083 14.9819 12.8606 15.0797 12.9843 15.1276 13.1357 15.2032 13.2691 15.3254 13.4029 15.448 13.5758 15.675 13.5758 16 13.5758 16.325 13.4029 16.552 13.2691 16.6746 13.1357 16.7968 12.9843 16.8724 12.8606 16.9203 12.6083 17.0181 12.3106 17.0625 12.0193 17.0625 11.7281 17.0625 11.4304 17.0181 11.1781 16.9203 11.0544 16.8724 10.903 16.7968 10.7696 16.6746 10.6358 16.552 10.4629 16.325 10.4629 16 10.4629 15.675 10.6358 15.448 10.7696 15.3254 10.903 15.2032 11.0544 15.1276 11.1781 15.0797zM8.03634 12.6464C8.20137 12.38 8.52726 12.0625 9.0161 12.0625 9.50494 12.0625 9.83083 12.38 9.99586 12.6464 10.168 12.9243 10.25 13.2612 10.25 13.5938 10.25 13.9263 10.168 14.2632 9.99586 14.5411 9.83083 14.8075 9.50494 15.125 9.0161 15.125 8.52726 15.125 8.20137 14.8075 8.03634 14.5411 7.86421 14.2632 7.78223 13.9263 7.78223 13.5938 7.78223 13.2612 7.86421 12.9243 8.03634 12.6464zM17.8633 14.375C17.8633 13.9608 18.1991 13.625 18.6133 13.625 18.909 13.625 19.2635 13.6924 19.5939 13.7737 19.9386 13.8585 20.3133 13.9729 20.6704 14.095 21.3543 14.3289 22.0796 14.6271 22.4073 14.8387 22.7552 15.0634 22.8551 15.5277 22.6304 15.8756 22.4057 16.2236 21.9414 16.3235 21.5935 16.0988 21.4373 15.9979 20.8722 15.7493 20.1852 15.5144 19.8568 15.4021 19.5259 15.3017 19.2355 15.2302 18.9308 15.1553 18.7207 15.125 18.6133 15.125 18.1991 15.125 17.8633 14.7892 17.8633 14.375zM17.2178 16.875C17.2178 16.4608 17.5536 16.125 17.9678 16.125 18.568 16.125 19.1924 16.4004 19.6488 16.6416 20.0585 16.8581 20.4387 17.1067 20.6811 17.2652 20.7231 17.2926 20.7609 17.3173 20.794 17.3387 21.142 17.5634 21.2419 18.0277 21.0172 18.3756 20.7924 18.7236 20.3282 18.8235 19.9802 18.5988 19.9391 18.5722 19.8953 18.5436 19.849 18.5134 19.6037 18.3533 19.29 18.1485 18.948 17.9678 18.5174 17.7402 18.174 17.625 17.9678 17.625 17.5536 17.625 17.2178 17.2892 17.2178 16.875zM3.81532 15.5144C3.12823 15.7493 2.5632 15.9979 2.40698 16.0988 2.05903 16.3235 1.59478 16.2236 1.37006 15.8756 1.14534 15.5277 1.24524 15.0634 1.5932 14.8387 1.92085 14.6271 2.64614 14.3289 3.33003 14.095 3.68718 13.9729 4.0619 13.8585 4.4066 13.7737 4.73696 13.6924 5.09144 13.625 5.38719 13.625 5.80141 13.625 6.13719 13.9608 6.13719 14.375 6.13719 14.7892 5.80141 15.125 5.38719 15.125 5.27973 15.125 5.06968 15.1553 4.76496 15.2302 4.47458 15.3017 4.14365 15.4021 3.81532 15.5144zM4.15049 18.5134C4.10424 18.5436 4.06041 18.5722 4.01929 18.5988 3.67133 18.8235 3.20709 18.7236 2.98236 18.3756 2.75764 18.0277 2.85755 17.5634 3.2055 17.3387 3.23864 17.3173 3.27646 17.2926 3.3184 17.2652 3.56081 17.1067 3.94099 16.8581 4.35071 16.6416 4.80716 16.4004 5.43149 16.125 6.03175 16.125 6.44597 16.125 6.78175 16.4608 6.78175 16.875 6.78175 17.2892 6.44597 17.625 6.03175 17.625 5.82556 17.625 5.48215 17.7402 5.0515 17.9678 4.7095 18.1485 4.39582 18.3533 4.15049 18.5134z" clip-rule="evenodd"></path>
  <path fill="#CD4ED3" fill-rule="evenodd" d="M4.20842 4.91616C4.77423 4.42871 5.48108 4.25 6.09446 4.25C6.50289 4.25 6.92547 4.40675 7.26612 4.56067C7.62724 4.72384 8.00462 4.93584 8.34406 5.13132C8.41778 5.17377 8.48936 5.21523 8.55887 5.25548C8.82291 5.40842 9.05715 5.54408 9.26593 5.65166C9.39564 5.71849 9.49638 5.7643 9.57134 5.79206C9.60293 5.80376 9.62313 5.80966 9.63349 5.81242C9.88698 5.81102 10.0485 5.79033 10.2817 5.76044C10.3318 5.75403 10.3851 5.74719 10.4434 5.74003C10.7901 5.69743 11.2276 5.65636 11.9997 5.65636C12.7718 5.65636 13.2094 5.69743 13.556 5.74003C13.6143 5.74719 13.6677 5.75403 13.7177 5.76044C13.951 5.79033 14.1125 5.81102 14.366 5.81242C14.3763 5.80966 14.3965 5.80377 14.4281 5.79206C14.5031 5.7643 14.6038 5.7185 14.7335 5.65167C14.9423 5.5441 15.1765 5.40844 15.4406 5.25552C15.5101 5.21526 15.5817 5.17381 15.6554 5.13136C15.9948 4.9359 16.3722 4.72392 16.7333 4.56076C17.074 4.40685 17.4965 4.25011 17.905 4.25011C18.5183 4.25011 19.2252 4.42882 19.791 4.91628C20.3775 5.42162 20.7298 6.18792 20.7298 7.18761V9.0625L20.7298 9.06545C20.7286 9.35941 20.6787 9.94758 20.511 10.4392C20.4561 10.6001 20.3685 10.8134 20.2221 11.0058C20.5061 11.5688 20.6408 12.1495 20.7019 12.7095C20.7653 13.29 20.7511 13.9063 20.7387 14.4419C20.7341 14.6411 20.7298 14.8291 20.7298 15C20.7298 17.3734 19.1032 18.8262 17.3206 19.6462C15.5398 20.4654 13.4307 20.75 11.9997 20.75C10.5686 20.75 8.45958 20.4654 6.67877 19.6462C4.89619 18.8262 3.26963 17.3734 3.26963 15C3.26964 14.8291 3.26529 14.6411 3.26069 14.4419C3.24831 13.9063 3.23408 13.29 3.29747 12.7095C3.35864 12.1495 3.49325 11.5688 3.77725 11.0058C3.63089 10.8134 3.54326 10.6001 3.4884 10.4392C3.3207 9.94757 3.27081 9.35941 3.26965 9.06545L3.26965 9.0625V7.1875C3.26965 6.18781 3.62186 5.4215 4.20842 4.91616ZM4.83386 9.66506C4.94013 9.57281 5.05269 9.48292 5.1718 9.39546C5.50568 9.15031 5.97507 9.22224 6.22023 9.55612C6.46538 9.88999 6.39345 10.3594 6.05957 10.6045C5.81886 10.7813 5.62708 10.9625 5.47291 11.1447C5.04183 11.6541 4.85909 12.227 4.7886 12.8724C4.73658 13.3487 4.74731 13.8053 4.75896 14.3014C4.76421 14.5245 4.76964 14.7555 4.76963 15C4.76963 16.5328 5.77649 17.5801 7.30564 18.2835C8.83655 18.9877 10.7175 19.25 11.9997 19.25C13.2819 19.25 15.1628 18.9877 16.6937 18.2835C18.2229 17.58 19.2298 16.5328 19.2298 15C19.2298 14.7555 19.2352 14.5245 19.2404 14.3014C19.2521 13.8053 19.2628 13.3487 19.2108 12.8724C19.1403 12.227 18.9576 11.6541 18.5265 11.1447C18.3723 10.9625 18.1805 10.7813 17.9398 10.6045C17.6059 10.3594 17.534 9.88999 17.7792 9.55611C18.0243 9.22224 18.4937 9.15031 18.8276 9.39546C18.9467 9.48292 19.0593 9.57282 19.1655 9.66506C19.2096 9.43686 19.2291 9.19817 19.2298 9.06087V7.18761C19.2298 6.56231 19.0234 6.23486 18.8119 6.0527C18.5797 5.85266 18.2492 5.75011 17.905 5.75011C17.8346 5.75011 17.6586 5.78868 17.3509 5.92771C17.0636 6.0575 16.7428 6.23612 16.4039 6.43125C16.3403 6.4679 16.2755 6.50544 16.2102 6.54328C15.9424 6.69843 15.6656 6.85883 15.4205 6.98509C15.2659 7.06473 15.1048 7.14099 14.9491 7.19867C14.8054 7.25192 14.6066 7.3125 14.3937 7.3125C14.0219 7.3125 13.7613 7.27877 13.5112 7.2464C13.465 7.24042 13.4192 7.2345 13.3731 7.22883C13.0844 7.19336 12.708 7.15636 11.9997 7.15636C11.2915 7.15636 10.915 7.19336 10.6263 7.22883C10.5802 7.2345 10.5344 7.24042 10.4883 7.2464C10.2381 7.27877 9.97756 7.3125 9.6057 7.3125C9.39287 7.3125 9.19405 7.25191 9.05029 7.19866C8.89458 7.14098 8.73347 7.06471 8.57888 6.98506C8.33383 6.85879 8.05701 6.69838 7.78926 6.54323C7.72393 6.50538 7.65915 6.46784 7.5955 6.43118C7.25663 6.23603 6.93575 6.05741 6.64848 5.92761C6.34075 5.78856 6.16482 5.75 6.09446 5.75C5.75022 5.75 5.41967 5.85254 5.18748 6.05259C4.97603 6.23475 4.76965 6.56219 4.76965 7.1875V9.06088C4.7703 9.19819 4.78985 9.43686 4.83386 9.66506Z" clip-rule="evenodd"></path>
  <path fill="#CD4ED3" fill-rule="evenodd" d="M14.0363 12.6464C14.2014 12.38 14.5273 12.0625 15.0161 12.0625C15.5049 12.0625 15.8308 12.38 15.9959 12.6464C16.168 12.9243 16.25 13.2612 16.25 13.5938C16.25 13.9263 16.168 14.2632 15.9959 14.5411C15.8308 14.8075 15.5049 15.125 15.0161 15.125C14.5273 15.125 14.2014 14.8075 14.0363 14.5411C13.8642 14.2632 13.7822 13.9263 13.7822 13.5938C13.7822 13.2612 13.8642 12.9243 14.0363 12.6464Z" clip-rule="evenodd"></path>
</svg>
